<svg width="62" height="62" viewBox="0 0 62 62" fill="none" xmlns="http://www.w3.org/2000/svg">
<g filter="url(#filter0_d_511_16956)">
<path fill-rule="evenodd" clip-rule="evenodd" d="M52.3523 19.4372C52.9609 18.2646 52.5038 16.8206 51.3312 16.212C50.1586 15.6033 48.7146 16.0605 48.1059 17.2331L37.1032 38.4307C36.1521 40.263 34.2595 41.413 32.1951 41.413C31.5635 41.413 30.9567 41.3071 30.3915 41.1122L29.239 43.2615C28.8476 43.9915 28.3521 44.6443 27.7766 45.2056C29.1159 45.8415 30.6139 46.1973 32.1951 46.1973C36.0457 46.1973 39.5756 44.0524 41.3495 40.6348L52.3523 19.4372ZM23.7932 25.3301C24.4207 24.1674 23.9867 22.7163 22.8241 22.0888C21.6614 21.4614 20.2102 21.8954 19.5828 23.058L13.4891 34.3505C10.6159 39.6751 14.4719 46.1375 20.5222 46.1375C23.4672 46.1375 26.1736 44.5177 27.5653 41.9223L36.0162 26.1615C36.6406 24.9971 36.2028 23.5471 35.0384 22.9228C33.8741 22.2985 32.4241 22.7363 31.7998 23.9006L23.3489 39.6614C22.7903 40.7031 21.7041 41.3531 20.5222 41.3531C18.0939 41.3531 16.5464 38.7595 17.6995 36.6226L23.7932 25.3301Z" fill="url(#paint0_linear_511_16956)"/>
</g>
<g filter="url(#filter1_d_511_16956)">
<path fill-rule="evenodd" clip-rule="evenodd" d="M45.2356 13.3709C45.1426 13.2945 45.0491 13.219 44.9551 13.1442C44.8459 13.0728 44.7435 12.9926 44.6485 12.9047C40.6092 9.80402 35.6437 8.13528 30.5374 8.17607C25.1809 8.21886 20.0093 10.1402 15.9241 13.605C11.8389 17.0699 9.09925 21.8586 8.18274 27.1363C7.26623 32.414 8.23098 37.8459 10.9088 42.4852C13.5867 47.1246 17.8077 50.677 22.8362 52.5232C27.8647 54.3694 33.3816 54.3923 38.4253 52.588C43.4689 50.7836 47.7194 47.2664 50.4357 42.6496C53.148 38.0395 54.1589 32.625 53.2932 27.3474C53.1761 27.0161 53.1321 26.6534 53.1786 26.281C53.3382 25.0005 54.5056 24.0919 55.7861 24.2515C56.9706 24.3991 57.837 25.4092 57.8338 26.5734L57.8791 26.566C58.9292 32.9259 57.7139 39.4527 54.4452 45.0085C51.1765 50.5643 46.0616 54.7968 39.9922 56.9681C33.9229 59.1394 27.284 59.1118 21.2329 56.8901C15.1818 54.6684 10.1023 50.3936 6.87985 44.8108C3.65743 39.228 2.49647 32.6913 3.59937 26.3403C4.70227 19.9893 7.99906 14.2268 12.915 10.0573C17.831 5.88777 24.0544 3.57575 30.5002 3.52425C36.6365 3.47523 42.604 5.47779 47.4611 9.19921C47.6069 9.28929 47.7414 9.39469 47.8628 9.51295C47.9717 9.59958 48.0799 9.6871 48.1876 9.7755L48.1387 9.83506C48.4654 10.2947 48.6276 10.8733 48.5523 11.4771C48.3927 12.7576 47.2253 13.6662 45.9448 13.5066C45.708 13.4771 45.484 13.4131 45.2771 13.3204L45.2356 13.3709Z" fill="url(#paint1_linear_511_16956)"/>
</g>
<defs>
<filter id="filter0_d_511_16956" x="12.5193" y="15.9425" width="41.4357" height="31.9212" filterUnits="userSpaceOnUse" color-interpolation-filters="sRGB">
<feFlood flood-opacity="0" result="BackgroundImageFix"/>
<feColorMatrix in="SourceAlpha" type="matrix" values="0 0 0 0 0 0 0 0 0 0 0 0 0 0 0 0 0 0 127 0" result="hardAlpha"/>
<feOffset dx="1.33316" dy="1.66646"/>
<feComposite in2="hardAlpha" operator="out"/>
<feColorMatrix type="matrix" values="0 0 0 0 0.768627 0 0 0 0 0.784314 0 0 0 0 0.847059 0 0 0 1 0"/>
<feBlend mode="normal" in2="BackgroundImageFix" result="effect1_dropShadow_511_16956"/>
<feBlend mode="normal" in="SourceGraphic" in2="effect1_dropShadow_511_16956" result="shape"/>
</filter>
<filter id="filter1_d_511_16956" x="3.19336" y="3.52338" width="56.3866" height="56.7198" filterUnits="userSpaceOnUse" color-interpolation-filters="sRGB">
<feFlood flood-opacity="0" result="BackgroundImageFix"/>
<feColorMatrix in="SourceAlpha" type="matrix" values="0 0 0 0 0 0 0 0 0 0 0 0 0 0 0 0 0 0 127 0" result="hardAlpha"/>
<feOffset dx="1.33316" dy="1.66646"/>
<feComposite in2="hardAlpha" operator="out"/>
<feColorMatrix type="matrix" values="0 0 0 0 0.768627 0 0 0 0 0.784314 0 0 0 0 0.847059 0 0 0 1 0"/>
<feBlend mode="normal" in2="BackgroundImageFix" result="effect1_dropShadow_511_16956"/>
<feBlend mode="normal" in="SourceGraphic" in2="effect1_dropShadow_511_16956" result="shape"/>
</filter>
<linearGradient id="paint0_linear_511_16956" x1="14.7081" y1="40.9559" x2="51.8977" y2="12.7972" gradientUnits="userSpaceOnUse">
<stop stop-color="#FD0000"/>
<stop offset="1" stop-color="#FFB443"/>
</linearGradient>
<linearGradient id="paint1_linear_511_16956" x1="4.16153" y1="45.8679" x2="68.5376" y2="19.0293" gradientUnits="userSpaceOnUse">
<stop stop-color="#FD0000"/>
<stop offset="1" stop-color="#FFAA3E"/>
</linearGradient>
</defs>
</svg>
