<svg width="193" height="198" viewBox="0 0 193 198" fill="none" xmlns="http://www.w3.org/2000/svg">
<path d="M76.5 29.0001C112 -6.99998 154.786 24.0001 154.786 64.8501C153 107 102.79 112.723 83.471 93.6604C75.981 86.2697 76.8968 66.2289 96.8347 67.2324C108.412 67.8152 126.475 73.3145 135.107 93.7091C143.739 114.104 144.544 124.367 141.811 136.321C131.672 180.679 83.471 192 61 175" stroke="#FE6525" stroke-width="2" stroke-linecap="round"/>
<path d="M71.264 166.559C70.3506 166.795 60.8262 173.219 60.1281 173.9C59.0689 174.932 59.2035 174.042 59.5714 175.467C61.3814 180.009 63.7672 184.31 66.4576 189.092" stroke="#FE6525" stroke-width="2" stroke-linecap="round"/>
</svg>
