<svg aria-hidden="true" style="position: absolute; width: 0; height: 0; overflow: hidden;" version="1.1" xmlns="http://www.w3.org/2000/svg" xmlns:xlink="http://www.w3.org/1999/xlink">
<defs>
<symbol id="burger-menu-icon" viewBox="0 0 32 32">
<path d="M2.613 1.685c-0.512 0.138-0.802 0.44-0.938 0.982-0.23 0.907 0.115 1.771 0.802 2.011 0.256 0.090 0.984 0.094 13.523 0.094s13.267-0.005 13.523-0.094c0.343-0.13 0.611-0.392 0.746-0.723l0.003-0.009c0.13-0.341 0.131-1.115 0.005-1.48-0.145-0.348-0.417-0.619-0.757-0.76l-0.009-0.003c-0.314-0.117-26.462-0.136-26.898-0.019zM2.613 14.485c-0.514 0.138-0.802 0.44-0.938 0.982-0.162 0.637-0.021 1.352 0.338 1.718 0.408 0.419-0.442 0.387 10.387 0.387s9.979 0.032 10.387-0.387c0.275-0.282 0.376-0.586 0.381-1.158 0.006-0.634-0.106-0.965-0.421-1.243-0.438-0.384 0.381-0.355-10.24-0.366-8.326-0.010-9.64-0.002-9.894 0.067zM2.613 27.285c-0.512 0.138-0.802 0.44-0.938 0.982-0.23 0.907 0.115 1.771 0.802 2.011 0.256 0.090 0.984 0.094 13.523 0.094s13.267-0.005 13.523-0.094c0.343-0.13 0.611-0.392 0.746-0.723l0.003-0.009c0.13-0.341 0.131-1.115 0.005-1.48-0.145-0.348-0.417-0.619-0.757-0.76l-0.009-0.003c-0.314-0.117-26.462-0.136-26.898-0.019z"></path>
</symbol>
<symbol id="icon-search" viewBox="0 0 32 32">
<path d="M29.71 28.29l-6.5-6.5h-0.070c2.004-2.362 3.016-5.408 2.825-8.499s-1.569-5.99-3.847-8.088c-2.278-2.099-5.279-3.235-8.376-3.172s-6.049 1.322-8.239 3.512-3.449 5.143-3.512 8.239c-0.063 3.097 1.073 6.098 3.172 8.376s4.997 3.657 8.088 3.847c3.092 0.19 6.137-0.822 8.499-2.826 0 0 0 0.050 0 0.070l6.5 6.5c0.093 0.094 0.204 0.168 0.325 0.219s0.253 0.077 0.385 0.077c0.132 0 0.263-0.026 0.385-0.077s0.232-0.125 0.325-0.219c0.102-0.091 0.185-0.202 0.243-0.326s0.090-0.259 0.094-0.396c0.004-0.137-0.021-0.273-0.072-0.4s-0.128-0.242-0.225-0.339zM14 24c-1.978 0-3.911-0.586-5.556-1.685s-2.926-2.661-3.683-4.488c-0.757-1.827-0.955-3.838-0.569-5.778s1.338-3.722 2.737-5.12 3.18-2.351 5.12-2.737c1.94-0.386 3.95-0.188 5.778 0.569s3.389 2.039 4.488 3.683c1.099 1.645 1.685 3.578 1.685 5.556 0 1.313-0.259 2.614-0.761 3.827s-1.239 2.316-2.168 3.244c-0.929 0.929-2.031 1.665-3.244 2.168s-2.514 0.761-3.827 0.761z"></path>
</symbol>
<symbol id="icon-closing-button" viewBox="0 0 32 32">
<path d="M32 3.223l-3.223-3.223-12.777 12.777-12.777-12.777-3.223 3.223 12.777 12.777-12.777 12.777 3.223 3.223 12.777-12.777 12.777 12.777 3.223-3.223-12.777-12.777 12.777-12.777z"></path>
</symbol>
</defs>
</svg>
